{
    "asset" : {
        "generator" : "Khronos glTF Blender I/O v3.4.10",
        "version" : "2.0"
    },
    "scene" : 0,
    "scenes" : [
        {
            "name" : "Scene",
            "nodes" : [
                0
            ]
        }
    ],
    "nodes" : [
        {
            "mesh" : 0,
            "name" : "subset_0.107",
            "rotation" : [
                -0.7071068286895752,
                0,
                0,
                0.7071068286895752
            ],
            "scale" : [
                100,
                100,
                100
            ]
        }
    ],
    "materials" : [
        {
            "doubleSided" : true,
            "emissiveFactor" : [
                0.20000004768371582,
                0.20000004768371582,
                0.20000004768371582
            ],
            "emissiveTexture" : {
                "index" : 0
            },
            "name" : "LMBR_000009a_mesh",
            "pbrMetallicRoughness" : {
                "baseColorFactor" : [
                    0.800000011920929,
                    0.800000011920929,
                    0.800000011920929,
                    1
                ],
                "roughnessFactor" : 0
            }
        }
    ],
    "meshes" : [
        {
            "name" : "subset_0.032",
            "primitives" : [
                {
                    "attributes" : {
                        "POSITION" : 0,
                        "NORMAL" : 1,
                        "TANGENT" : 2,
                        "TEXCOORD_0" : 3
                    },
                    "indices" : 4,
                    "material" : 0
                }
            ]
        }
    ],
    "textures" : [
        {
            "sampler" : 0,
            "source" : 0
        }
    ],
    "images" : [
        {
            "mimeType" : "image/png",
            "name" : "paris_menusign_01a_emis",
            "uri" : "paris_menusign_01a_emis.png"
        }
    ],
    "accessors" : [
        {
            "bufferView" : 0,
            "componentType" : 5126,
            "count" : 2441,
            "max" : [
                0.003365582786500454,
                0.0020358434412628412,
                0.01001579500734806
            ],
            "min" : [
                -0.003090319922193885,
                -0.0020361444912850857,
                -3.8912889976927545e-06
            ],
            "type" : "VEC3"
        },
        {
            "bufferView" : 1,
            "componentType" : 5126,
            "count" : 2441,
            "type" : "VEC3"
        },
        {
            "bufferView" : 2,
            "componentType" : 5126,
            "count" : 2441,
            "type" : "VEC4"
        },
        {
            "bufferView" : 3,
            "componentType" : 5126,
            "count" : 2441,
            "type" : "VEC2"
        },
        {
            "bufferView" : 4,
            "componentType" : 5123,
            "count" : 5148,
            "type" : "SCALAR"
        }
    ],
    "bufferViews" : [
        {
            "buffer" : 0,
            "byteLength" : 29292,
            "byteOffset" : 0,
            "target" : 34962
        },
        {
            "buffer" : 0,
            "byteLength" : 29292,
            "byteOffset" : 29292,
            "target" : 34962
        },
        {
            "buffer" : 0,
            "byteLength" : 39056,
            "byteOffset" : 58584,
            "target" : 34962
        },
        {
            "buffer" : 0,
            "byteLength" : 19528,
            "byteOffset" : 97640,
            "target" : 34962
        },
        {
            "buffer" : 0,
            "byteLength" : 10296,
            "byteOffset" : 117168,
            "target" : 34963
        }
    ],
    "samplers" : [
        {
            "magFilter" : 9729,
            "minFilter" : 9987
        }
    ],
    "buffers" : [
        {
            "byteLength" : 127464,
            "uri" : "standing-mirror.bin"
        }
    ]
}
