{
  "accessors": [
    {
      "bufferView": 2,
      "componentType": 5126,
      "count": 1115,
      "max": [
        0.2674773335456848,
        0.35469579696655273,
        0.2674773633480072
      ],
      "min": [
        -0.2674773633480072,
        0.00024283351376652718,
        -0.2674773633480072
      ],
      "type": "VEC3"
    },
    {
      "bufferView": 2,
      "byteOffset": 13380,
      "componentType": 5126,
      "count": 1115,
      "max": [
        1.0,
        1.0,
        1.0
      ],
      "min": [
        -1.0,
        -1.0,
        -1.0
      ],
      "type": "VEC3"
    },
    {
      "bufferView": 1,
      "componentType": 5126,
      "count": 1115,
      "max": [
        1.0,
        0.7128027677536011
      ],
      "min": [
        0.0,
        -1.0
      ],
      "type": "VEC2"
    },
    {
      "bufferView": 0,
      "componentType": 5125,
      "count": 2772,
      "type": "SCALAR"
    },
    {
      "bufferView": 2,
      "byteOffset": 26760,
      "componentType": 5126,
      "count": 405,
      "max": [
        0.23846086859703064,
        0.3189794421195984,
        0.23846086859703064
      ],
      "min": [
        -0.23846086859703064,
        0.3189793825149536,
        -0.23846086859703064
      ],
      "type": "VEC3"
    },
    {
      "bufferView": 2,
      "byteOffset": 31620,
      "componentType": 5126,
      "count": 405,
      "max": [
        1.0000043175750761e-06,
        1.0,
        1.0000040902014007e-06
      ],
      "min": [
        -1.0000040902014007e-06,
        1.0,
        -1.0000042038882384e-06
      ],
      "type": "VEC3"
    },
    {
      "bufferView": 1,
      "byteOffset": 8920,
      "componentType": 5126,
      "count": 405,
      "max": [
        1.0,
        0.5699374079704285
      ],
      "min": [
        0.0,
        0.5699372887611389
      ],
      "type": "VEC2"
    },
    {
      "bufferView": 0,
      "byteOffset": 11088,
      "componentType": 5125,
      "count": 588,
      "type": "SCALAR"
    },
    {
      "bufferView": 2,
      "byteOffset": 36480,
      "componentType": 5126,
      "count": 42770,
      "max": [
        0.21912451088428497,
        0.3278648257255554,
        0.2711001932621002
      ],
      "min": [
        -0.25093185901641846,
        0.012915749102830887,
        -0.27544906735420227
      ],
      "type": "VEC3"
    },
    {
      "bufferView": 2,
      "byteOffset": 549720,
      "componentType": 5126,
      "count": 42770,
      "max": [
        0.9999947547912598,
        0.9999179840087891,
        0.9999644756317139
      ],
      "min": [
        -0.9999961853027344,
        -0.9999939203262329,
        -0.9998881816864014
      ],
      "type": "VEC3"
    },
    {
      "bufferView": 1,
      "byteOffset": 12160,
      "componentType": 5126,
      "count": 42770,
      "max": [
        1.0,
        1.0
      ],
      "min": [
        0.0,
        0.0
      ],
      "type": "VEC2"
    },
    {
      "bufferView": 0,
      "byteOffset": 13440,
      "componentType": 5125,
      "count": 230472,
      "type": "SCALAR"
    },
    {
      "bufferView": 2,
      "byteOffset": 1062960,
      "componentType": 5126,
      "count": 65532,
      "max": [
        0.21639885008335114,
        0.18663811683654785,
        0.16393056511878967
      ],
      "min": [
        -0.3996019959449768,
        -0.3242679536342621,
        -0.22023533284664154
      ],
      "type": "VEC3"
    },
    {
      "bufferView": 2,
      "byteOffset": 1849344,
      "componentType": 5126,
      "count": 65532,
      "max": [
        0.9999550580978394,
        0.9995079636573792,
        0.9999958872795105
      ],
      "min": [
        -0.9983689188957214,
        -0.9990533590316772,
        -0.44612035155296326
      ],
      "type": "VEC3"
    },
    {
      "bufferView": 1,
      "byteOffset": 354320,
      "componentType": 5126,
      "count": 65532,
      "max": [
        0.912429690361023,
        0.9885365962982178
      ],
      "min": [
        0.07434216141700745,
        0.002153724431991577
      ],
      "type": "VEC2"
    },
    {
      "bufferView": 0,
      "byteOffset": 935328,
      "componentType": 5125,
      "count": 83448,
      "type": "SCALAR"
    },
    {
      "bufferView": 2,
      "byteOffset": 2635728,
      "componentType": 5126,
      "count": 3768,
      "max": [
        0.19604894518852234,
        0.17468810081481934,
        0.15203119814395905
      ],
      "min": [
        -0.3236052989959717,
        -0.2679511308670044,
        -0.11310241371393204
      ],
      "type": "VEC3"
    },
    {
      "bufferView": 2,
      "byteOffset": 2680944,
      "componentType": 5126,
      "count": 3768,
      "max": [
        0.999840259552002,
        0.9987146854400635,
        0.9999092221260071
      ],
      "min": [
        -0.9642161130905151,
        -0.9590765833854675,
        -0.13423757255077362
      ],
      "type": "VEC3"
    },
    {
      "bufferView": 1,
      "byteOffset": 878576,
      "componentType": 5126,
      "count": 3768,
      "max": [
        0.912429690361023,
        0.8503379225730896
      ],
      "min": [
        0.07434216141700745,
        0.3231266140937805
      ],
      "type": "VEC2"
    },
    {
      "bufferView": 0,
      "byteOffset": 1269120,
      "componentType": 5125,
      "count": 5652,
      "type": "SCALAR"
    }
  ],
  "asset": {
    "extras": {
      "author": "anybody (https://sketchfab.com/anybody)",
      "license": "CC-BY-4.0 (http://creativecommons.org/licenses/by/4.0/)",
      "source": "https://sketchfab.com/3d-models/plant-pot-ivy-507dae90a1f541e0a3e2ccbee5abc333",
      "title": "Plant Pot Ivy"
    },
    "generator": "Sketchfab-12.68.0",
    "version": "2.0"
  },
  "bufferViews": [
    {
      "buffer": 0,
      "byteLength": 1291728,
      "name": "floatBufferViews",
      "target": 34963
    },
    {
      "buffer": 0,
      "byteLength": 908720,
      "byteOffset": 1291728,
      "byteStride": 8,
      "name": "floatBufferViews",
      "target": 34962
    },
    {
      "buffer": 0,
      "byteLength": 2726160,
      "byteOffset": 2200448,
      "byteStride": 12,
      "name": "floatBufferViews",
      "target": 34962
    }
  ],
  "buffers": [
    {
      "byteLength": 4926608,
      "uri": "scene.bin"
    }
  ],
  "images": [
    {
      "uri": "textures/Material.016_baseColor.png"
    }
  ],
  "materials": [
    {
      "name": "Material.019",
      "pbrMetallicRoughness": {
        "baseColorFactor": [
          0.438544,
          0.107491,
          0.0301259,
          1.0
        ],
        "metallicFactor": 0.0,
        "roughnessFactor": 0.25
      }
    },
    {
      "doubleSided": true,
      "name": "Material.018",
      "pbrMetallicRoughness": {
        "baseColorFactor": [
          0.011011230500289834,
          0.004220366466787759,
          0.004220366466787759,
          1.0
        ],
        "metallicFactor": 0.0,
        "roughnessFactor": 0.863636
      }
    },
    {
      "name": "Material.017",
      "pbrMetallicRoughness": {
        "baseColorFactor": [
          0.06028389999999999,
          0.024052999999999998,
          0.0011332699999999992,
          1.0
        ],
        "metallicFactor": 0.0,
        "roughnessFactor": 0.75
      }
    },
    {
      "alphaMode": "MASK",
      "doubleSided": true,
      "name": "Material.016",
      "pbrMetallicRoughness": {
        "baseColorTexture": {
          "index": 0
        }
      }
    }
  ],
  "meshes": [
    {
      "name": "Object_0",
      "primitives": [
        {
          "attributes": {
            "NORMAL": 1,
            "POSITION": 0,
            "TEXCOORD_0": 2
          },
          "indices": 3,
          "material": 0,
          "mode": 4
        }
      ]
    },
    {
      "name": "Object_1",
      "primitives": [
        {
          "attributes": {
            "NORMAL": 5,
            "POSITION": 4,
            "TEXCOORD_0": 6
          },
          "indices": 7,
          "material": 1,
          "mode": 4
        }
      ]
    },
    {
      "name": "Object_2",
      "primitives": [
        {
          "attributes": {
            "NORMAL": 9,
            "POSITION": 8,
            "TEXCOORD_0": 10
          },
          "indices": 11,
          "material": 2,
          "mode": 4
        }
      ]
    },
    {
      "name": "Object_3",
      "primitives": [
        {
          "attributes": {
            "NORMAL": 13,
            "POSITION": 12,
            "TEXCOORD_0": 14
          },
          "indices": 15,
          "material": 3,
          "mode": 4
        }
      ]
    },
    {
      "name": "Object_4",
      "primitives": [
        {
          "attributes": {
            "NORMAL": 17,
            "POSITION": 16,
            "TEXCOORD_0": 18
          },
          "indices": 19,
          "material": 3,
          "mode": 4
        }
      ]
    }
  ],
  "nodes": [
    {
      "children": [
        1
      ],
      "matrix": [
        1.107475996017456,
        0.0,
        0.0,
        0.0,
        0.0,
        2.459090699996516e-16,
        -1.107475996017456,
        0.0,
        0.0,
        1.107475996017456,
        2.459090699996516e-16,
        0.0,
        0.0,
        0.0,
        0.0,
        1.0
      ],
      "name": "Sketchfab_model"
    },
    {
      "children": [
        2
      ],
      "name": "root"
    },
    {
      "children": [
        3
      ],
      "matrix": [
        1.0,
        0.0,
        0.0,
        0.0,
        0.0,
        2.220446049250313e-16,
        1.0,
        0.0,
        0.0,
        -1.0,
        2.220446049250313e-16,
        0.0,
        0.0,
        0.0,
        0.0,
        1.0
      ],
      "name": "GLTF_SceneRootNode"
    },
    {
      "children": [
        4,
        5,
        6,
        8
      ],
      "matrix": [
        -0.17888246499736893,
        0.0,
        0.3898594377398144,
        0.0,
        0.0,
        0.4289397597312927,
        0.0,
        0.0,
        -0.3898594377398144,
        0.0,
        -0.17888246499736893,
        0.0,
        3.4421682357788086e-05,
        -0.0001403770875185728,
        0.01201939582824707,
        1.0
      ],
      "name": "PlantPot_2"
    },
    {
      "mesh": 0,
      "name": "Object_4"
    },
    {
      "mesh": 1,
      "name": "Object_5"
    },
    {
      "children": [
        7
      ],
      "matrix": [
        -0.9722438079396825,
        0.0,
        -2.118924425124373,
        0.0,
        0.0,
        2.331329822540283,
        0.0,
        0.0,
        2.118924425124373,
        0.0,
        -0.9722438079396825,
        0.0,
        -0.02543472871184349,
        0.00032726526842452586,
        0.01175872515887022,
        1.0
      ],
      "name": "Ivy_0"
    },
    {
      "mesh": 2,
      "name": "Object_7"
    },
    {
      "children": [
        9,
        10
      ],
      "matrix": [
        2.0923770220451985,
        -1.6521532900961384e-07,
        -1.0281323005422587,
        0.0,
        -1.0234164274386641,
        0.2230415108226436,
        -2.082779669967298,
        0.0,
        0.0983629600912526,
        2.320635717772429,
        0.2001804767753553,
        0.0,
        0.09296984225511551,
        0.4540637731552124,
        -0.20488427579402924,
        1.0
      ],
      "name": "Leafe_1"
    },
    {
      "mesh": 3,
      "name": "Object_9"
    },
    {
      "mesh": 4,
      "name": "Object_10"
    }
  ],
  "samplers": [
    {
      "magFilter": 9729,
      "minFilter": 9987,
      "wrapS": 10497,
      "wrapT": 10497
    }
  ],
  "scene": 0,
  "scenes": [
    {
      "name": "Sketchfab_Scene",
      "nodes": [
        0
      ]
    }
  ],
  "textures": [
    {
      "sampler": 0,
      "source": 0
    }
  ]
}
