{
    "asset" : {
        "generator" : "Khronos glTF Blender I/O v3.4.50",
        "version" : "2.0"
    },
    "extensionsUsed" : [
        "KHR_materials_transmission",
        "KHR_materials_ior",
        "KHR_materials_specular"
    ],
    "scene" : 0,
    "scenes" : [
        {
            "name" : "Scene",
            "nodes" : [
                0,
                1,
                2,
                3,
                4,
                5,
                6
            ]
        }
    ],
    "nodes" : [
        {
            "mesh" : 0,
            "name" : "1-Cube"
        },
        {
            "mesh" : 1,
            "name" : "1-Sphere",
            "translation" : [
                1,
                0,
                0
            ]
        },
        {
            "mesh" : 2,
            "name" : "2-Cube",
            "translation" : [
                0,
                0,
                -6
            ]
        },
        {
            "mesh" : 3,
            "name" : "2-Sphere",
            "translation" : [
                1,
                0,
                -6
            ]
        },
        {
            "mesh" : 4,
            "name" : "3-Cube",
            "translation" : [
                0,
                0,
                6
            ]
        },
        {
            "mesh" : 5,
            "name" : "3-Sphere",
            "translation" : [
                1,
                0,
                6
            ]
        },
        {
            "camera" : 0,
            "name" : "Fly Through",
            "rotation" : [
                -0.0568285807967186,
                0.41624975204467773,
                0.01970740593969822,
                0.9072586894035339
            ],
            "scale" : [
                1.0000032186508179,
                1.0000065565109253,
                1.0000051259994507
            ],
            "translation" : [
                12.016490936279297,
                2.3358123302459717,
                12.720355987548828
            ]
        }
    ],
    "cameras" : [
        {
            "name" : "Camera.001",
            "perspective" : {
                "aspectRatio" : 1.7777777777777777,
                "yfov" : 0.39959652046304894,
                "zfar" : 100,
                "znear" : 0.10000000149011612
            },
            "type" : "perspective"
        }
    ],
    "animations" : [
        {
            "channels" : [
                {
                    "sampler" : 0,
                    "target" : {
                        "node" : 6,
                        "path" : "translation"
                    }
                },
                {
                    "sampler" : 1,
                    "target" : {
                        "node" : 6,
                        "path" : "rotation"
                    }
                }
            ],
            "name" : "CameraAction.001",
            "samplers" : [
                {
                    "input" : 26,
                    "interpolation" : "LINEAR",
                    "output" : 27
                },
                {
                    "input" : 26,
                    "interpolation" : "LINEAR",
                    "output" : 28
                }
            ]
        }
    ],
    "materials" : [
        {
            "extensions" : {
                "KHR_materials_transmission" : {
                    "transmissionFactor" : 0.9900000095367432
                },
                "KHR_materials_ior" : {
                    "ior" : 1.4500000476837158
                }
            },
            "name" : "Material-2-Cube",
            "pbrMetallicRoughness" : {
                "baseColorFactor" : [
                    0.800000011920929,
                    0.800000011920929,
                    0.800000011920929,
                    1
                ],
                "metallicFactor" : 0,
                "roughnessFactor" : 0
            }
        },
        {
            "extensions" : {
                "KHR_materials_transmission" : {
                    "transmissionFactor" : 0.9900000095367432
                },
                "KHR_materials_ior" : {
                    "ior" : 1.4500000476837158
                }
            },
            "name" : "Material-2-Sphere",
            "pbrMetallicRoughness" : {
                "baseColorFactor" : [
                    0.800000011920929,
                    0.800000011920929,
                    0.800000011920929,
                    1
                ],
                "metallicFactor" : 0,
                "roughnessFactor" : 0
            }
        },
        {
            "extensions" : {
                "KHR_materials_transmission" : {
                    "transmissionFactor" : 0.9900000095367432
                },
                "KHR_materials_ior" : {
                    "ior" : 1.4500000476837158
                }
            },
            "name" : "Material-3-Cube",
            "pbrMetallicRoughness" : {
                "baseColorFactor" : [
                    0.800000011920929,
                    0.800000011920929,
                    0.800000011920929,
                    1
                ],
                "metallicFactor" : 0,
                "roughnessFactor" : 0
            }
        },
        {
            "extensions" : {
                "KHR_materials_transmission" : {
                    "transmissionFactor" : 0.9900000095367432
                },
                "KHR_materials_specular" : {
                    "specularColorFactor" : [
                        0.9900000095367432,
                        0.9900000095367432,
                        0.9900000095367432
                    ]
                },
                "KHR_materials_ior" : {
                    "ior" : 1.4500000476837158
                }
            },
            "name" : "Material-3-Sphere",
            "pbrMetallicRoughness" : {
                "baseColorFactor" : [
                    0.800000011920929,
                    0.800000011920929,
                    0.800000011920929,
                    1
                ],
                "metallicFactor" : 0,
                "roughnessFactor" : 0
            }
        },
        {
            "extensions" : {
                "KHR_materials_transmission" : {
                    "transmissionFactor" : 0.9900000095367432
                },
                "KHR_materials_ior" : {
                    "ior" : 1.4500000476837158
                }
            },
            "name" : "Material-1-Cube",
            "pbrMetallicRoughness" : {
                "baseColorFactor" : [
                    0.800000011920929,
                    0.800000011920929,
                    0.800000011920929,
                    1
                ],
                "metallicFactor" : 0,
                "roughnessFactor" : 0
            }
        },
        {
            "extensions" : {
                "KHR_materials_transmission" : {
                    "transmissionFactor" : 0.9900000095367432
                },
                "KHR_materials_ior" : {
                    "ior" : 1.4500000476837158
                }
            },
            "name" : "Material-1-Sphere",
            "pbrMetallicRoughness" : {
                "baseColorFactor" : [
                    0.800000011920929,
                    0.800000011920929,
                    0.800000011920929,
                    1
                ],
                "metallicFactor" : 0,
                "roughnessFactor" : 0
            }
        }
    ],
    "meshes" : [
        {
            "name" : "Cube",
            "primitives" : [
                {
                    "attributes" : {
                        "POSITION" : 0,
                        "TEXCOORD_0" : 1,
                        "NORMAL" : 2,
                        "TANGENT" : 3
                    },
                    "indices" : 4,
                    "material" : 0
                }
            ]
        },
        {
            "name" : "Icosphere",
            "primitives" : [
                {
                    "attributes" : {
                        "POSITION" : 5,
                        "TEXCOORD_0" : 6,
                        "NORMAL" : 7,
                        "TANGENT" : 8
                    },
                    "indices" : 9,
                    "material" : 1
                }
            ]
        },
        {
            "name" : "Cube.001",
            "primitives" : [
                {
                    "attributes" : {
                        "POSITION" : 10,
                        "TEXCOORD_0" : 11,
                        "NORMAL" : 12,
                        "TANGENT" : 13
                    },
                    "indices" : 4,
                    "material" : 2
                }
            ]
        },
        {
            "name" : "Icosphere.001",
            "primitives" : [
                {
                    "attributes" : {
                        "POSITION" : 14,
                        "TEXCOORD_0" : 15,
                        "NORMAL" : 16,
                        "TANGENT" : 17
                    },
                    "indices" : 9,
                    "material" : 3
                }
            ]
        },
        {
            "name" : "Cube.002",
            "primitives" : [
                {
                    "attributes" : {
                        "POSITION" : 18,
                        "TEXCOORD_0" : 19,
                        "NORMAL" : 20,
                        "TANGENT" : 21
                    },
                    "indices" : 4,
                    "material" : 4
                }
            ]
        },
        {
            "name" : "Icosphere.002",
            "primitives" : [
                {
                    "attributes" : {
                        "POSITION" : 22,
                        "TEXCOORD_0" : 23,
                        "NORMAL" : 24,
                        "TANGENT" : 25
                    },
                    "indices" : 9,
                    "material" : 5
                }
            ]
        }
    ],
    "accessors" : [
        {
            "bufferView" : 0,
            "componentType" : 5126,
            "count" : 24,
            "max" : [
                1,
                1,
                1
            ],
            "min" : [
                -1,
                -1,
                -1
            ],
            "type" : "VEC3"
        },
        {
            "bufferView" : 1,
            "componentType" : 5126,
            "count" : 24,
            "type" : "VEC2"
        },
        {
            "bufferView" : 2,
            "componentType" : 5126,
            "count" : 24,
            "type" : "VEC3"
        },
        {
            "bufferView" : 3,
            "componentType" : 5126,
            "count" : 24,
            "type" : "VEC4"
        },
        {
            "bufferView" : 4,
            "componentType" : 5123,
            "count" : 36,
            "type" : "SCALAR"
        },
        {
            "bufferView" : 5,
            "componentType" : 5126,
            "count" : 4017,
            "max" : [
                0.924250066280365,
                0.9303051233291626,
                0.9248635768890381
            ],
            "min" : [
                -0.924250066280365,
                -0.9303051233291626,
                -0.9248635768890381
            ],
            "type" : "VEC3"
        },
        {
            "bufferView" : 6,
            "componentType" : 5126,
            "count" : 4017,
            "type" : "VEC2"
        },
        {
            "bufferView" : 7,
            "componentType" : 5126,
            "count" : 4017,
            "type" : "VEC3"
        },
        {
            "bufferView" : 8,
            "componentType" : 5126,
            "count" : 4017,
            "type" : "VEC4"
        },
        {
            "bufferView" : 9,
            "componentType" : 5123,
            "count" : 23040,
            "type" : "SCALAR"
        },
        {
            "bufferView" : 10,
            "componentType" : 5126,
            "count" : 24,
            "max" : [
                1,
                1,
                1
            ],
            "min" : [
                -1,
                -1,
                -1
            ],
            "type" : "VEC3"
        },
        {
            "bufferView" : 11,
            "componentType" : 5126,
            "count" : 24,
            "type" : "VEC2"
        },
        {
            "bufferView" : 12,
            "componentType" : 5126,
            "count" : 24,
            "type" : "VEC3"
        },
        {
            "bufferView" : 13,
            "componentType" : 5126,
            "count" : 24,
            "type" : "VEC4"
        },
        {
            "bufferView" : 14,
            "componentType" : 5126,
            "count" : 4017,
            "max" : [
                0.924250066280365,
                0.9303051233291626,
                0.9248635768890381
            ],
            "min" : [
                -0.924250066280365,
                -0.9303051233291626,
                -0.9248635768890381
            ],
            "type" : "VEC3"
        },
        {
            "bufferView" : 15,
            "componentType" : 5126,
            "count" : 4017,
            "type" : "VEC2"
        },
        {
            "bufferView" : 16,
            "componentType" : 5126,
            "count" : 4017,
            "type" : "VEC3"
        },
        {
            "bufferView" : 17,
            "componentType" : 5126,
            "count" : 4017,
            "type" : "VEC4"
        },
        {
            "bufferView" : 18,
            "componentType" : 5126,
            "count" : 24,
            "max" : [
                1,
                1,
                1
            ],
            "min" : [
                -1,
                -1,
                -1
            ],
            "type" : "VEC3"
        },
        {
            "bufferView" : 19,
            "componentType" : 5126,
            "count" : 24,
            "type" : "VEC2"
        },
        {
            "bufferView" : 20,
            "componentType" : 5126,
            "count" : 24,
            "type" : "VEC3"
        },
        {
            "bufferView" : 21,
            "componentType" : 5126,
            "count" : 24,
            "type" : "VEC4"
        },
        {
            "bufferView" : 22,
            "componentType" : 5126,
            "count" : 4017,
            "max" : [
                0.924250066280365,
                0.9303051233291626,
                0.9248635768890381
            ],
            "min" : [
                -0.924250066280365,
                -0.9303051233291626,
                -0.9248635768890381
            ],
            "type" : "VEC3"
        },
        {
            "bufferView" : 23,
            "componentType" : 5126,
            "count" : 4017,
            "type" : "VEC2"
        },
        {
            "bufferView" : 24,
            "componentType" : 5126,
            "count" : 4017,
            "type" : "VEC3"
        },
        {
            "bufferView" : 25,
            "componentType" : 5126,
            "count" : 4017,
            "type" : "VEC4"
        },
        {
            "bufferView" : 26,
            "componentType" : 5126,
            "count" : 1001,
            "max" : [
                41.666666666666664
            ],
            "min" : [
                0
            ],
            "type" : "SCALAR"
        },
        {
            "bufferView" : 27,
            "componentType" : 5126,
            "count" : 1001,
            "type" : "VEC3"
        },
        {
            "bufferView" : 28,
            "componentType" : 5126,
            "count" : 1001,
            "type" : "VEC4"
        }
    ],
    "bufferViews" : [
        {
            "buffer" : 0,
            "byteLength" : 288,
            "byteOffset" : 0,
            "target" : 34962
        },
        {
            "buffer" : 0,
            "byteLength" : 192,
            "byteOffset" : 288,
            "target" : 34962
        },
        {
            "buffer" : 0,
            "byteLength" : 288,
            "byteOffset" : 480,
            "target" : 34962
        },
        {
            "buffer" : 0,
            "byteLength" : 384,
            "byteOffset" : 768,
            "target" : 34962
        },
        {
            "buffer" : 0,
            "byteLength" : 72,
            "byteOffset" : 1152,
            "target" : 34963
        },
        {
            "buffer" : 0,
            "byteLength" : 48204,
            "byteOffset" : 1224,
            "target" : 34962
        },
        {
            "buffer" : 0,
            "byteLength" : 32136,
            "byteOffset" : 49428,
            "target" : 34962
        },
        {
            "buffer" : 0,
            "byteLength" : 48204,
            "byteOffset" : 81564,
            "target" : 34962
        },
        {
            "buffer" : 0,
            "byteLength" : 64272,
            "byteOffset" : 129768,
            "target" : 34962
        },
        {
            "buffer" : 0,
            "byteLength" : 46080,
            "byteOffset" : 194040,
            "target" : 34963
        },
        {
            "buffer" : 0,
            "byteLength" : 288,
            "byteOffset" : 240120,
            "target" : 34962
        },
        {
            "buffer" : 0,
            "byteLength" : 192,
            "byteOffset" : 240408,
            "target" : 34962
        },
        {
            "buffer" : 0,
            "byteLength" : 288,
            "byteOffset" : 240600,
            "target" : 34962
        },
        {
            "buffer" : 0,
            "byteLength" : 384,
            "byteOffset" : 240888,
            "target" : 34962
        },
        {
            "buffer" : 0,
            "byteLength" : 48204,
            "byteOffset" : 241272,
            "target" : 34962
        },
        {
            "buffer" : 0,
            "byteLength" : 32136,
            "byteOffset" : 289476,
            "target" : 34962
        },
        {
            "buffer" : 0,
            "byteLength" : 48204,
            "byteOffset" : 321612,
            "target" : 34962
        },
        {
            "buffer" : 0,
            "byteLength" : 64272,
            "byteOffset" : 369816,
            "target" : 34962
        },
        {
            "buffer" : 0,
            "byteLength" : 288,
            "byteOffset" : 434088,
            "target" : 34962
        },
        {
            "buffer" : 0,
            "byteLength" : 192,
            "byteOffset" : 434376,
            "target" : 34962
        },
        {
            "buffer" : 0,
            "byteLength" : 288,
            "byteOffset" : 434568,
            "target" : 34962
        },
        {
            "buffer" : 0,
            "byteLength" : 384,
            "byteOffset" : 434856,
            "target" : 34962
        },
        {
            "buffer" : 0,
            "byteLength" : 48204,
            "byteOffset" : 435240,
            "target" : 34962
        },
        {
            "buffer" : 0,
            "byteLength" : 32136,
            "byteOffset" : 483444,
            "target" : 34962
        },
        {
            "buffer" : 0,
            "byteLength" : 48204,
            "byteOffset" : 515580,
            "target" : 34962
        },
        {
            "buffer" : 0,
            "byteLength" : 64272,
            "byteOffset" : 563784,
            "target" : 34962
        },
        {
            "buffer" : 0,
            "byteLength" : 4004,
            "byteOffset" : 628056
        },
        {
            "buffer" : 0,
            "byteLength" : 12012,
            "byteOffset" : 632060
        },
        {
            "buffer" : 0,
            "byteLength" : 16016,
            "byteOffset" : 644072
        }
    ],
    "buffers" : [
        {
            "byteLength" : 660088,
            "uri" : "nested-dielectrics.bin"
        }
    ]
}
